<?xml version="1.0" standalone="no"?>
<!DOCTYPE svg PUBLIC "-//W3C//DTD SVG 20010904//EN"
 "http://www.w3.org/TR/2001/REC-SVG-20010904/DTD/svg10.dtd">
<svg version="1.0" xmlns="http://www.w3.org/2000/svg"
 width="900.000000pt" height="600.000000pt" viewBox="0 0 900.000000 600.000000"
 preserveAspectRatio="xMidYMid meet">

<g transform="translate(0.000000,600.000000) scale(0.100000,-0.100000)"
fill="#000000" stroke="none">
<path d="M0 5979 c0 -12 11 -32 25 -45 14 -13 25 -32 25 -44 0 -12 -11 -31
-25 -44 -22 -21 -25 -31 -25 -97 0 -62 3 -77 20 -91 38 -33 38 -128 0 -148
-20 -11 -20 -41 -20 -2755 l0 -2745 4500 0 4500 0 0 2995 0 2995 -4500 0
-4500 0 0 -21z m697 -114 c24 -54 41 -100 38 -103 -8 -8 -10 -4 -59 106 -25
57 -40 102 -34 100 6 -2 31 -48 55 -103z m840 0 c24 -54 41 -100 38 -103 -8
-8 -10 -4 -59 106 -25 57 -40 102 -34 100 6 -2 31 -48 55 -103z m1960 0 c24
-54 41 -100 38 -103 -8 -8 -10 -4 -59 106 -25 57 -40 102 -34 100 6 -2 31 -48
55 -103z m1260 0 c24 -54 41 -100 38 -103 -8 -8 -10 -4 -59 106 -25 57 -40
102 -34 100 6 -2 31 -48 55 -103z m2240 0 c24 -54 41 -100 38 -103 -8 -8 -10
-4 -59 106 -25 57 -40 102 -34 100 6 -2 31 -48 55 -103z m-5137 5 c0 -53 -4
-90 -10 -90 -5 0 -10 5 -10 10 0 7 -6 7 -20 0 -34 -18 -60 4 -60 50 0 46 26
68 60 50 18 -10 20 -8 20 30 0 22 5 40 10 40 6 0 10 -37 10 -90z m-1694 65
c18 -13 16 -14 -21 -12 -57 3 -60 -25 -6 -53 32 -16 41 -26 41 -45 0 -29 -40
-50 -77 -40 -35 9 -27 20 14 20 50 0 51 25 3 57 -40 27 -48 49 -25 72 20 20
45 20 71 1z m278 9 c26 -10 18 -21 -13 -16 -21 3 -33 -2 -45 -19 -35 -50 -9
-106 52 -111 35 -4 36 -4 10 -12 -38 -11 -80 12 -90 49 -11 41 4 88 33 102 28
15 32 15 53 7z m358 -66 c3 -70 4 -73 28 -73 24 0 25 3 28 73 4 92 22 95 22 3
0 -74 -14 -101 -50 -101 -36 0 -50 27 -50 101 0 92 18 89 22 -3z m903 0 c10
-40 20 -79 23 -85 2 -7 0 -13 -6 -13 -5 0 -12 9 -15 20 -4 15 -14 20 -37 20
-23 0 -33 -5 -37 -20 -3 -11 -10 -20 -15 -20 -5 0 -7 8 -4 18 3 9 12 44 22 77
20 71 21 75 38 75 7 0 20 -31 31 -72z m405 64 c0 -13 -12 -22 -22 -16 -10 6
-1 24 13 24 5 0 9 -4 9 -8z m280 0 c0 -13 -12 -22 -22 -16 -10 6 -1 24 13 24
5 0 9 -4 9 -8z m1690 -7 c0 -8 -4 -15 -10 -15 -5 0 -10 7 -10 15 0 8 5 15 10
15 6 0 10 -7 10 -15z m844 9 c26 -10 18 -21 -13 -16 -21 3 -33 -2 -45 -19 -35
-50 -9 -106 52 -111 35 -4 36 -4 10 -12 -38 -11 -80 12 -90 49 -11 41 4 88 33
102 28 15 32 15 53 7z m140 -10 c35 -35 32 -125 -5 -145 -61 -32 -112 50 -78
125 17 36 58 46 83 20z m92 -19 c3 -19 10 -35 14 -35 4 0 11 16 14 35 4 21 13
35 21 35 12 0 15 -17 13 -87 l-2 -88 -3 73 c-4 77 -17 94 -27 37 -4 -19 -11
-35 -16 -35 -5 0 -12 16 -16 35 -10 57 -23 40 -27 -37 l-3 -73 -2 88 c-2 70 1
87 13 87 8 0 17 -14 21 -35z m194 15 c11 -11 20 -29 20 -40 0 -28 -35 -60 -65
-60 -20 0 -25 -5 -25 -25 0 -14 -4 -25 -10 -25 -6 0 -10 35 -10 85 l0 85 35 0
c22 0 43 -8 55 -20z m72 -52 c3 -70 4 -73 28 -73 24 0 25 3 28 73 4 92 22 95
22 3 0 -74 -14 -101 -50 -101 -36 0 -50 27 -50 101 0 92 18 89 22 -3z m228 62
c0 -5 -11 -10 -25 -10 -24 0 -25 -2 -25 -75 0 -43 -4 -75 -10 -75 -6 0 -10 32
-10 75 0 73 -1 75 -25 75 -14 0 -25 5 -25 10 0 6 27 10 60 10 33 0 60 -4 60
-10z m140 0 c0 -5 -20 -10 -45 -10 -43 0 -45 -1 -45 -30 0 -27 3 -30 30 -30
17 0 30 -4 30 -10 0 -5 -13 -10 -30 -10 -25 0 -30 -4 -30 -25 0 -23 4 -25 45
-25 25 0 45 -4 45 -10 0 -5 -25 -10 -55 -10 l-55 0 0 85 0 85 55 0 c30 0 55
-4 55 -10z m111 0 c21 -12 27 -68 8 -87 -8 -8 -6 -19 5 -42 9 -17 12 -31 7
-31 -6 0 -17 14 -26 30 -9 18 -23 30 -35 30 -16 0 -20 -7 -20 -30 0 -16 -4
-30 -10 -30 -6 0 -10 35 -10 85 l0 85 31 0 c17 0 39 -5 50 -10z m225 -65 c10
-41 21 -75 24 -75 3 0 14 34 24 75 10 41 22 75 28 75 6 0 8 -8 5 -17 -2 -10
-13 -48 -23 -85 -25 -93 -44 -92 -69 5 -10 39 -20 78 -23 85 -2 6 0 12 6 12 6
0 18 -34 28 -75z m214 65 c0 -5 -9 -10 -20 -10 -18 0 -20 -7 -20 -65 0 -58 2
-65 20 -65 11 0 20 -4 20 -10 0 -5 -22 -10 -50 -10 -27 0 -50 5 -50 10 0 6 9
10 20 10 18 0 20 7 20 65 0 58 -2 65 -20 65 -11 0 -20 5 -20 10 0 6 23 10 50
10 28 0 50 -4 50 -10z m126 -5 c18 -13 16 -14 -21 -12 -57 3 -60 -25 -6 -53
32 -16 41 -26 41 -45 0 -29 -40 -50 -77 -40 -35 9 -27 20 14 20 50 0 51 25 3
57 -40 27 -48 49 -25 72 20 20 45 20 71 1z m154 5 c0 -5 -9 -10 -20 -10 -18 0
-20 -7 -20 -65 0 -58 2 -65 20 -65 11 0 20 -4 20 -10 0 -5 -22 -10 -50 -10
-27 0 -50 5 -50 10 0 6 9 10 20 10 18 0 20 7 20 65 0 58 -2 65 -20 65 -11 0
-20 5 -20 10 0 6 23 10 50 10 28 0 50 -4 50 -10z m124 -6 c35 -35 32 -125 -5
-145 -61 -32 -112 50 -78 125 17 36 58 46 83 20z m107 -51 l24 -68 3 68 c4 97
22 83 22 -18 0 -107 -16 -113 -51 -17 l-24 67 -3 -67 c-4 -98 -22 -84 -22 17
0 107 16 113 51 18z m313 61 c26 -10 18 -21 -13 -16 -21 3 -33 -2 -45 -19 -35
-50 -9 -106 52 -111 35 -4 36 -4 10 -12 -38 -11 -80 12 -90 49 -11 41 4 88 33
102 28 15 32 15 53 7z m140 -10 c35 -35 32 -125 -5 -145 -61 -32 -112 50 -78
125 17 36 58 46 83 20z m92 -19 c3 -19 10 -35 14 -35 4 0 11 16 14 35 4 21 13
35 21 35 12 0 15 -17 13 -87 l-2 -88 -3 73 c-4 77 -17 94 -27 37 -4 -19 -11
-35 -16 -35 -5 0 -12 16 -16 35 -10 57 -23 40 -27 -37 l-3 -73 -2 88 c-2 70 1
87 13 87 8 0 17 -14 21 -35z m194 15 c11 -11 20 -29 20 -40 0 -28 -35 -60 -65
-60 -20 0 -25 -5 -25 -25 0 -14 -4 -25 -10 -25 -6 0 -10 35 -10 85 l0 85 35 0
c22 0 43 -8 55 -20z m72 -52 c3 -70 4 -73 28 -73 24 0 25 3 28 73 4 92 22 95
22 3 0 -74 -14 -101 -50 -101 -36 0 -50 27 -50 101 0 92 18 89 22 -3z m228 62
c0 -5 -11 -10 -25 -10 -24 0 -25 -2 -25 -75 0 -43 -4 -75 -10 -75 -6 0 -10 32
-10 75 0 73 -1 75 -25 75 -14 0 -25 5 -25 10 0 6 27 10 60 10 33 0 60 -4 60
-10z m140 0 c0 -5 -20 -10 -45 -10 -43 0 -45 -1 -45 -30 0 -27 3 -30 30 -30
17 0 30 -4 30 -10 0 -5 -13 -10 -30 -10 -25 0 -30 -4 -30 -25 0 -23 4 -25 45
-25 25 0 45 -4 45 -10 0 -5 -25 -10 -55 -10 l-55 0 0 85 0 85 55 0 c30 0 55
-4 55 -10z m111 0 c21 -12 27 -68 8 -87 -8 -8 -6 -19 5 -42 9 -17 12 -31 7
-31 -6 0 -17 14 -26 30 -9 18 -23 30 -35 30 -16 0 -20 -7 -20 -30 0 -16 -4
-30 -10 -30 -6 0 -10 35 -10 85 l0 85 31 0 c17 0 39 -5 50 -10z m225 -65 c10
-41 21 -75 24 -75 3 0 14 34 24 75 10 41 22 75 28 75 6 0 8 -8 5 -17 -2 -10
-13 -48 -23 -85 -25 -93 -44 -92 -69 5 -10 39 -20 78 -23 85 -2 6 0 12 6 12 6
0 18 -34 28 -75z m214 65 c0 -5 -9 -10 -20 -10 -18 0 -20 -7 -20 -65 0 -58 2
-65 20 -65 11 0 20 -4 20 -10 0 -5 -22 -10 -50 -10 -27 0 -50 5 -50 10 0 6 9
10 20 10 18 0 20 7 20 65 0 58 -2 65 -20 65 -11 0 -20 5 -20 10 0 6 23 10 50
10 28 0 50 -4 50 -10z m126 -5 c18 -13 16 -14 -21 -12 -57 3 -60 -25 -6 -53
32 -16 41 -26 41 -45 0 -29 -40 -50 -77 -40 -35 9 -27 20 14 20 50 0 51 25 3
57 -40 27 -48 49 -25 72 20 20 45 20 71 1z m154 5 c0 -5 -9 -10 -20 -10 -18 0
-20 -7 -20 -65 0 -58 2 -65 20 -65 11 0 20 -4 20 -10 0 -5 -22 -10 -50 -10
-27 0 -50 5 -50 10 0 6 9 10 20 10 18 0 20 7 20 65 0 58 -2 65 -20 65 -11 0
-20 5 -20 10 0 6 23 10 50 10 28 0 50 -4 50 -10z m-6220 -25 c0 -10 10 -15 30
-15 17 0 30 -4 30 -10 0 -5 -14 -10 -31 -10 -29 0 -30 -2 -27 -37 3 -33 7 -38
31 -41 33 -4 36 -22 3 -22 -34 0 -56 26 -56 66 0 24 -5 34 -15 34 -8 0 -15 5
-15 10 0 6 7 10 15 10 8 0 15 7 15 15 0 8 5 15 10 15 6 0 10 -7 10 -15z m420
0 c0 -10 10 -15 30 -15 17 0 30 -4 30 -10 0 -5 -14 -10 -31 -10 -29 0 -30 -2
-27 -37 3 -33 7 -38 31 -41 33 -4 36 -22 3 -22 -34 0 -56 26 -56 66 0 24 -5
34 -15 34 -8 0 -15 5 -15 10 0 6 7 10 15 10 8 0 15 7 15 15 0 8 5 15 10 15 6
0 10 -7 10 -15z m1400 0 c0 -10 10 -15 30 -15 17 0 30 -4 30 -10 0 -5 -14 -10
-31 -10 -29 0 -30 -2 -27 -37 3 -33 7 -38 31 -41 33 -4 36 -22 3 -22 -34 0
-56 26 -56 66 0 24 -5 34 -15 34 -8 0 -15 5 -15 10 0 6 7 10 15 10 8 0 15 7
15 15 0 8 5 15 10 15 6 0 10 -7 10 -15z m-3900 -30 c0 -8 -4 -15 -10 -15 -5 0
-10 7 -10 15 0 8 5 15 10 15 6 0 10 -7 10 -15z m450 6 c0 -6 -15 -11 -32 -13
-43 -4 -42 -18 2 -33 46 -16 48 -46 3 -58 -18 -5 -40 -6 -50 -1 -14 6 -9 9 21
13 51 8 57 27 12 35 -39 8 -49 17 -40 40 8 22 84 37 84 17z m134 -7 c9 -8 16
-24 16 -35 0 -16 -7 -19 -40 -19 -40 0 -53 -13 -24 -24 9 -3 24 -6 35 -6 10 0
19 -4 19 -10 0 -15 -43 -12 -68 6 -14 10 -22 26 -22 44 0 18 8 34 22 44 28 20
43 20 62 0z m92 4 c4 -7 7 -29 5 -50 -1 -29 2 -38 14 -38 8 0 15 -4 15 -10 0
-5 -18 -10 -40 -10 -22 0 -40 5 -40 10 0 6 7 10 15 10 11 0 15 11 15 40 0 22
-4 40 -10 40 -5 0 -10 5 -10 10 0 14 27 13 36 -2z m58 6 c17 -7 22 -34 6 -34
-5 0 -10 5 -10 10 0 6 -10 10 -22 10 -19 0 -20 2 -8 10 18 12 15 11 34 4z
m136 -3 c0 -6 -15 -11 -32 -13 -43 -4 -42 -18 2 -33 46 -16 48 -46 3 -58 -18
-5 -40 -6 -50 -1 -14 6 -9 9 21 13 51 8 57 27 12 35 -39 8 -49 17 -40 40 8 22
84 37 84 17z m496 -1 c7 7 18 9 24 5 13 -8 13 -115 0 -115 -5 0 -10 23 -10 51
0 67 -23 62 -31 -7 -6 -48 -6 -48 -7 16 0 36 2 59 5 52 4 -10 8 -10 19 -2z
m70 -56 c1 -45 0 -48 -3 -14 -2 25 -8 49 -14 55 -13 13 -11 27 4 23 7 -3 12
-26 13 -64z m114 16 c0 -43 3 -50 20 -50 11 0 20 -4 20 -10 0 -5 -25 -10 -55
-10 -30 0 -55 5 -55 10 0 6 11 10 25 10 23 0 25 4 25 40 0 33 -3 40 -20 40
-11 0 -20 5 -20 10 0 6 14 10 30 10 29 0 30 -1 30 -50z m90 40 c0 -7 6 -7 19
0 25 13 27 13 45 -6 17 -17 23 -104 7 -104 -6 0 -11 21 -13 47 -2 37 -7 49
-22 51 -24 5 -36 -14 -36 -60 0 -21 -4 -38 -10 -38 -6 0 -10 27 -10 60 0 33 4
60 10 60 6 0 10 -5 10 -10z m190 -40 c0 -43 3 -50 20 -50 11 0 20 -4 20 -10 0
-5 -25 -10 -55 -10 -30 0 -55 5 -55 10 0 6 11 10 25 10 23 0 25 4 25 40 0 33
-3 40 -20 40 -11 0 -20 5 -20 10 0 6 14 10 30 10 29 0 30 -1 30 -50z m160 41
c0 -6 -15 -11 -32 -13 -43 -4 -42 -18 2 -33 46 -16 48 -46 3 -58 -18 -5 -40
-6 -50 -1 -14 6 -9 9 21 13 51 8 57 27 12 35 -39 8 -49 17 -40 40 8 22 84 37
84 17z m226 -3 c4 -7 7 -29 5 -50 -1 -29 2 -38 14 -38 8 0 15 -4 15 -10 0 -5
-18 -10 -40 -10 -22 0 -40 5 -40 10 0 6 7 10 15 10 11 0 15 11 15 40 0 22 -4
40 -10 40 -5 0 -10 5 -10 10 0 14 27 13 36 -2z m58 6 c17 -7 22 -34 6 -34 -5
0 -10 5 -10 10 0 6 -10 10 -22 10 -19 0 -20 2 -8 10 18 12 15 11 34 4z m110
-4 c22 -8 26 -16 26 -50 0 -22 5 -40 10 -40 6 0 10 -4 10 -10 0 -5 -7 -10 -15
-10 -8 0 -15 7 -15 17 0 15 -2 15 -19 -1 -26 -24 -61 -13 -61 19 0 24 17 35
52 35 29 0 16 24 -15 28 -15 2 -27 8 -27 13 0 12 22 12 54 -1z m298 -7 c24
-22 23 -65 -3 -89 -19 -17 -23 -17 -47 -3 -37 20 -42 71 -10 93 28 20 37 20
60 -1z m94 5 c4 -7 7 -29 5 -50 -1 -29 2 -38 14 -38 8 0 15 -4 15 -10 0 -5
-18 -10 -40 -10 -22 0 -40 5 -40 10 0 6 7 10 15 10 11 0 15 11 15 40 0 22 -4
40 -10 40 -5 0 -10 5 -10 10 0 14 27 13 36 -2z m58 6 c17 -7 22 -34 6 -34 -5
0 -10 5 -10 10 0 6 -10 10 -22 10 -19 0 -20 2 -8 10 18 12 15 11 34 4z m206
-4 c0 -7 6 -7 19 0 41 21 80 -25 62 -74 -12 -29 -36 -39 -62 -26 -17 10 -19 7
-19 -25 0 -19 -4 -35 -10 -35 -6 0 -10 35 -10 85 0 50 4 85 10 85 6 0 10 -5
10 -10z m156 -2 c4 -7 7 -29 5 -50 -1 -29 2 -38 14 -38 8 0 15 -4 15 -10 0 -5
-18 -10 -40 -10 -22 0 -40 5 -40 10 0 6 7 10 15 10 11 0 15 11 15 40 0 22 -4
40 -10 40 -5 0 -10 5 -10 10 0 14 27 13 36 -2z m58 6 c17 -7 22 -34 6 -34 -5
0 -10 5 -10 10 0 6 -10 10 -22 10 -19 0 -20 2 -8 10 18 12 15 11 34 4z m128
-11 c24 -22 23 -65 -3 -89 -19 -17 -23 -17 -47 -3 -37 20 -42 71 -10 93 28 20
37 20 60 -1z m138 -52 c0 -43 -5 -72 -12 -78 -19 -15 -68 -25 -68 -14 0 4 14
11 30 15 29 5 30 7 30 66 0 57 -1 60 -25 60 -14 0 -25 5 -25 10 0 6 16 10 35
10 l35 0 0 -69z m144 53 c9 -8 16 -24 16 -35 0 -16 -7 -19 -40 -19 -40 0 -53
-13 -24 -24 9 -3 24 -6 35 -6 10 0 19 -4 19 -10 0 -15 -43 -12 -68 6 -14 10
-22 26 -22 44 0 18 8 34 22 44 28 20 43 20 62 0z m140 10 c23 -9 20 -26 -4
-19 -32 10 -60 -4 -60 -29 0 -30 18 -46 53 -46 16 0 26 -4 22 -10 -9 -15 -48
-12 -73 6 -55 38 -2 123 62 98z m286 -3 c0 -6 -15 -11 -32 -13 -43 -4 -42 -18
2 -33 46 -16 48 -46 3 -58 -18 -5 -40 -6 -50 -1 -14 6 -9 9 21 13 51 8 57 27
12 35 -39 8 -49 17 -40 40 8 22 84 37 84 17z m1420 -31 c0 -5 -25 -10 -55 -10
-30 0 -55 5 -55 10 0 6 25 10 55 10 30 0 55 -4 55 -10z m2240 0 c0 -5 -25 -10
-55 -10 -30 0 -55 5 -55 10 0 6 25 10 55 10 30 0 55 -4 55 -10z m-7750 -65 c0
-8 -4 -15 -10 -15 -5 0 -10 7 -10 15 0 8 5 15 10 15 6 0 10 -7 10 -15z m-429
-192 l24 -68 3 68 c4 97 22 83 22 -18 0 -107 -16 -113 -51 -17 l-24 67 -3 -67
c-4 -98 -22 -84 -22 17 0 107 16 113 51 18z m153 7 c25 -10 46 -23 46 -27 0
-4 -25 -18 -55 -30 -30 -11 -55 -17 -55 -12 0 5 12 14 28 20 15 5 34 12 42 15
10 4 1 12 -27 25 -41 17 -54 29 -34 29 5 0 30 -9 55 -20z"/>
<path d="M1775 5861 c-11 -36 3 -63 33 -59 24 3 27 8 27 38 0 30 -3 35 -27 38
-19 2 -28 -2 -33 -17z"/>
<path d="M1653 5885 c-10 -45 -10 -45 17 -45 27 0 27 0 17 45 -6 25 -13 45
-17 45 -4 0 -11 -20 -17 -45z"/>
<path d="M5000 5911 c-23 -44 -5 -111 30 -111 23 0 40 28 40 65 0 37 -17 65
-40 65 -11 0 -24 -9 -30 -19z"/>
<path d="M5280 5890 c0 -39 2 -41 26 -38 15 2 32 11 38 21 15 24 -3 51 -38 55
-24 3 -26 1 -26 -38z"/>
<path d="M5840 5894 c0 -32 2 -35 26 -32 56 6 53 68 -2 68 -21 0 -24 -5 -24
-36z"/>
<path d="M6680 5911 c-23 -44 -5 -111 30 -111 23 0 40 28 40 65 0 37 -17 65
-40 65 -11 0 -24 -9 -30 -19z"/>
<path d="M7240 5911 c-23 -44 -5 -111 30 -111 23 0 40 28 40 65 0 37 -17 65
-40 65 -11 0 -24 -9 -30 -19z"/>
<path d="M7520 5890 c0 -39 2 -41 26 -38 35 4 53 31 38 56 -6 9 -23 18 -38 20
-24 3 -26 1 -26 -38z"/>
<path d="M8080 5894 c0 -32 2 -35 26 -32 56 6 53 68 -2 68 -21 0 -24 -5 -24
-36z"/>
<path d="M1087 5874 c-15 -15 -6 -24 24 -24 20 0 29 4 27 13 -5 14 -40 21 -51
11z"/>
<path d="M2908 5833 c-10 -2 -18 -11 -18 -19 0 -22 54 -14 58 9 3 17 -6 19
-40 10z"/>
<path d="M3184 5866 c-3 -8 -4 -25 -2 -38 2 -17 9 -23 28 -23 22 0 25 4 25 35
0 29 -4 36 -23 38 -13 2 -24 -3 -28 -12z"/>
<path d="M3605 5860 c-10 -32 4 -60 30 -60 26 0 40 28 30 60 -4 13 -15 20 -30
20 -15 0 -26 -7 -30 -20z"/>
<path d="M3884 5866 c-3 -8 -4 -25 -2 -38 2 -17 9 -23 28 -23 22 0 25 4 25 35
0 29 -4 36 -23 38 -13 2 -24 -3 -28 -12z"/>
<path d="M4167 5874 c-15 -15 -6 -24 24 -24 20 0 29 4 27 13 -5 14 -40 21 -51
11z"/>
<path d="M0 5890 c0 -37 2 -41 15 -30 8 7 15 20 15 30 0 10 -7 23 -15 30 -13
11 -15 7 -15 -30z"/>
<path d="M1 5585 c0 -64 1 -68 14 -51 8 11 15 34 15 51 0 17 -7 40 -15 51 -13
17 -14 13 -14 -51z"/>
</g>
</svg>
